<svg width="183" height="44" viewBox="0 0 183 44" fill="none" xmlns="http://www.w3.org/2000/svg">
<path d="M35.7068 36.0002H25.8401L24.5601 33.0668H11.9201L10.6401 36.0002H0.773438L16.7734 0.160156H19.7068L35.7068 36.0002ZM15.1734 25.7068H21.3068L18.2668 17.6002L15.1734 25.7068Z" fill="white"/>
<path d="M48.5164 16.7468L60.143 0.800157H70.8097L58.703 17.5468L72.783 36.0002H61.903L48.5164 18.4535V36.0002H39.343V0.800157H48.5164V16.7468Z" fill="white"/>
<path d="M106.56 27.7335H111.52V43.5202H102.346V36.0002H76.4264V0.800157H85.5997V27.7335H97.3864V0.800157H106.56V27.7335Z" fill="white"/>
<path d="M147.847 36.0002H138.674V17.6535L119.047 36.6402H116.114V0.800157H125.287V18.9868L144.914 0.160156H147.847V36.0002Z" fill="white"/>
<path d="M182.491 36.0002H173.317V26.7735H169.637H168.624L162.651 36.0002H152.411L160.197 24.0002C158.597 22.8624 157.335 21.4224 156.411 19.6802C155.522 17.9379 155.077 15.9468 155.077 13.7068C155.077 11.7513 155.451 9.97349 156.197 8.37349C156.944 6.77349 157.957 5.42238 159.237 4.32016C160.553 3.18238 162.099 2.31127 163.877 1.70682C165.655 1.10238 167.575 0.800157 169.637 0.800157H182.491V36.0002ZM169.477 8.80016C167.948 8.80016 166.722 9.26238 165.797 10.1868C164.873 11.1113 164.411 12.3024 164.411 13.7602C164.411 15.2535 164.873 16.4624 165.797 17.3868C166.722 18.3113 167.948 18.7735 169.477 18.7735H173.317V8.80016H169.477Z" fill="white"/>
</svg>
